<svg id="Layer_1" data-name="Layer 1" xmlns="http://www.w3.org/2000/svg" viewBox="0 0 628.05 1033.79">
  <defs>
    <style>
      .cls-1 {
        fill: #f9f9f9;
      }

      .cls-2, .cls-3, .cls-4, .cls-6, .cls-7, .cls-8, .cls-9 {
        fill: none;
      }

      .cls-2, .cls-3 {
        stroke: #9e84ef;
      }

      .cls-10, .cls-14, .cls-2, .cls-3, .cls-4, .cls-5, .cls-6, .cls-7, .cls-8, .cls-9 {
        stroke-miterlimit: 10;
        stroke-width: 5px;
      }

      .cls-3 {
        stroke-dasharray: 20;
      }

      .cls-4, .cls-5 {
        stroke: #ed6492;
      }

      .cls-10, .cls-14, .cls-5 {
        fill: #fff;
      }

      .cls-6, .cls-7 {
        stroke: #ccc;
      }

      .cls-7 {
        stroke-dasharray: 18.94 18.94;
      }

      .cls-14, .cls-8 {
        stroke: #77d0f7;
      }

      .cls-10, .cls-9 {
        stroke: #545454;
      }

      .cls-11 {
        fill: #545454;
      }

      .cls-12 {
        fill: #ed6492;
      }

      .cls-13 {
        fill: #77d0f7;
      }
    </style>
  </defs>
  <title>branch_diagram</title>
  <rect class="cls-1" width="628.05" height="1033.79"/>
  <g>
    <g>
      <g>
        <path class="cls-2" d="M267.42,702.19a78.12,78.12,0,0,0-78.55-77.69"/>
        <path class="cls-2" d="M111.58,546.82a78.12,78.12,0,0,0,78.55,77.69"/>
      </g>
      <line class="cls-3" x1="111.75" y1="374.63" x2="111.75" y2="552.62"/>
    </g>
    <g>
      <path class="cls-4" d="M267.58,967.65A78.12,78.12,0,0,1,346.13,890"/>
      <path class="cls-4" d="M423.42,812.28A78.12,78.12,0,0,1,344.87,890"/>
    </g>
    <g>
      <path class="cls-4" d="M268.3,169.85a78.1,78.1,0,0,0,78.1,78.1"/>
      <path class="cls-4" d="M423.25,326a78.1,78.1,0,0,0-78.1-78.1"/>
    </g>
    <line class="cls-4" x1="423.25" y1="334.9" x2="423.25" y2="818.09"/>
    <circle class="cls-5" cx="423.08" cy="338.8" r="10.39"/>
    <circle class="cls-5" cx="423.08" cy="418.86" r="10.39"/>
    <g>
      <line class="cls-6" x1="268.3" y1="194.56" x2="268.3" y2="204.56"/>
      <line class="cls-7" x1="268.3" y1="223.5" x2="268.3" y2="517.09"/>
      <line class="cls-6" x1="268.3" y1="526.56" x2="268.3" y2="536.56"/>
    </g>
    <path class="cls-8" d="M265.88,538.6c0,31.64,29.59,57.28,66.09,57.28"/>
    <path class="cls-8" d="M265.88,692.23c0,31.64,29.59,57.28,66.09,57.28"/>
    <line class="cls-9" x1="268.3" y1="104.67" x2="268.3" y2="187.67"/>
    <circle class="cls-10" cx="268.1" cy="182.37" r="10.39"/>
    <g>
      <path class="cls-11" d="M234.6,59.5a0.22,0.22,0,0,0,.43,0l1.34-4.68a0.47,0.47,0,0,1,.5-0.41h3.31a0.48,0.48,0,0,1,.48.48V70.74a0.48,0.48,0,0,1-.48.48h-2.35a0.48,0.48,0,0,1-.48-0.48v-9.5c0-.12-0.14-0.14-0.19,0L236,64.81a0.49,0.49,0,0,1-.5.41h-1.42a0.49,0.49,0,0,1-.5-0.41l-1.15-3.6c0-.12-0.19-0.1-0.19,0v9.5a0.48,0.48,0,0,1-.48.48h-2.35a0.48,0.48,0,0,1-.48-0.48V54.9a0.48,0.48,0,0,1,.48-0.48h3.31a0.47,0.47,0,0,1,.5.41Z"/>
      <path class="cls-11" d="M245.83,70.86a0.46,0.46,0,0,1-.46.36h-2.52a0.42,0.42,0,0,1-.48-0.48l4.3-16a0.46,0.46,0,0,1,.46-0.36h3.22a0.46,0.46,0,0,1,.46.36l4.27,16a0.42,0.42,0,0,1-.48.48h-2.52a0.48,0.48,0,0,1-.46-0.36l-0.74-2.47a0.39,0.39,0,0,0-.36-0.36h-3.65a0.37,0.37,0,0,0-.36.36Zm1.58-6.46a0.18,0.18,0,0,0,.19.26h2.21A0.18,0.18,0,0,0,250,64.4l-1.15-5.76a0.11,0.11,0,0,0-.12-0.1h0a0.11,0.11,0,0,0-.12.1Z"/>
      <path class="cls-11" d="M262.47,64.3c-3-.67-5.38-2-5.38-5.09a5.19,5.19,0,0,1,5.5-5.06c3.22,0,5.52,2.23,5.52,5.06v0.36a0.48,0.48,0,0,1-.48.48H265.2a0.48,0.48,0,0,1-.48-0.48V59.22a1.9,1.9,0,0,0-2.14-1.8c-1.34,0-2.09.72-2.09,1.68s0.89,1.49,2.14,1.73c3.34,0.67,5.81,2.06,5.81,5.4,0,3.12-2.45,5.26-5.86,5.26a5.39,5.39,0,0,1-5.71-5.26V65.51a0.48,0.48,0,0,1,.48-0.48h2.42a0.48,0.48,0,0,1,.48.48v0.72a2,2,0,0,0,2.33,2,2.1,2.1,0,0,0,2.38-2C265,65.19,264.27,64.71,262.47,64.3Z"/>
      <path class="cls-11" d="M271.39,57.78a0.48,0.48,0,0,1-.48-0.48V54.9a0.48,0.48,0,0,1,.48-0.48h10.32a0.48,0.48,0,0,1,.48.48v2.4a0.48,0.48,0,0,1-.48.48h-3.24a0.23,0.23,0,0,0-.24.24V70.74a0.48,0.48,0,0,1-.48.48h-2.4a0.48,0.48,0,0,1-.48-0.48V58a0.23,0.23,0,0,0-.24-0.24h-3.24Z"/>
      <path class="cls-11" d="M289,60.9a0.23,0.23,0,0,0,.24.24h5.4a0.48,0.48,0,0,1,.48.48V64a0.48,0.48,0,0,1-.48.48h-5.4a0.23,0.23,0,0,0-.24.24v2.88a0.23,0.23,0,0,0,.24.24h5.69a0.48,0.48,0,0,1,.48.48v2.4a0.48,0.48,0,0,1-.48.48h-8.81a0.48,0.48,0,0,1-.48-0.48V54.9a0.48,0.48,0,0,1,.48-0.48h8.71a0.48,0.48,0,0,1,.48.48v2.4a0.48,0.48,0,0,1-.48.48H289.2A0.23,0.23,0,0,0,289,58V60.9Z"/>
      <path class="cls-11" d="M302.81,64.5a0.23,0.23,0,0,0-.24.24v6a0.48,0.48,0,0,1-.48.48h-2.4a0.48,0.48,0,0,1-.48-0.48V54.9a0.48,0.48,0,0,1,.48-0.48H305a5.07,5.07,0,0,1,5,5,4.78,4.78,0,0,1-2.5,4.25,0.51,0.51,0,0,0-.14.79l2.57,6a0.47,0.47,0,0,1-.46.72H307a0.69,0.69,0,0,1-.7-0.48l-2.45-5.93a0.46,0.46,0,0,0-.43-0.31h-0.62Zm0-6.72a0.23,0.23,0,0,0-.24.24V60.9a0.23,0.23,0,0,0,.24.24H305a1.68,1.68,0,1,0,0-3.36h-2.16Z"/>
    </g>
    <g>
      <path class="cls-12" d="M383,59.5a0.22,0.22,0,0,0,.43,0l1.34-4.68a0.47,0.47,0,0,1,.5-0.41h3.31a0.48,0.48,0,0,1,.48.48V70.74a0.48,0.48,0,0,1-.48.48h-2.35a0.48,0.48,0,0,1-.48-0.48v-9.5c0-.12-0.14-0.14-0.19,0l-1.13,3.6a0.49,0.49,0,0,1-.5.41h-1.42a0.49,0.49,0,0,1-.5-0.41l-1.15-3.6c0-.12-0.19-0.1-0.19,0v9.5a0.48,0.48,0,0,1-.48.48h-2.35a0.48,0.48,0,0,1-.48-0.48V54.9a0.48,0.48,0,0,1,.48-0.48h3.31a0.47,0.47,0,0,1,.5.41Z"/>
      <path class="cls-12" d="M399.6,54.78a0.45,0.45,0,0,1,.46-0.36h2.64a0.45,0.45,0,0,1,.38.67l-4.25,10.71v4.94a0.48,0.48,0,0,1-.48.48h-2.4a0.48,0.48,0,0,1-.48-0.48V65.79l-4.25-10.71a0.45,0.45,0,0,1,.38-0.67h2.64a0.45,0.45,0,0,1,.46.36l2.3,6.65a0.11,0.11,0,0,0,.12.1h0a0.11,0.11,0,0,0,.12-0.1Z"/>
      <path class="cls-12" d="M423.57,62.77A4.63,4.63,0,0,1,425,66c0,3.14-2,5.18-4.92,5.18H414.4a0.48,0.48,0,0,1-.48-0.48V54.9a0.48,0.48,0,0,1,.48-0.48h5.66a4.76,4.76,0,0,1,4.73,4.9,4.69,4.69,0,0,1-1.22,3A0.27,0.27,0,0,0,423.57,62.77Zm-6.12-5a0.23,0.23,0,0,0-.24.24v2.62a0.23,0.23,0,0,0,.24.24h2.5a1.61,1.61,0,0,0,1.58-1.56,1.59,1.59,0,0,0-1.58-1.54h-2.5Zm2.5,10.08a1.82,1.82,0,0,0,0-3.62h-2.5a0.23,0.23,0,0,0-.24.24v3.14a0.23,0.23,0,0,0,.24.24h2.5Z"/>
      <path class="cls-12" d="M431.78,64.5a0.23,0.23,0,0,0-.24.24v6a0.48,0.48,0,0,1-.48.48h-2.4a0.48,0.48,0,0,1-.48-0.48V54.9a0.48,0.48,0,0,1,.48-0.48h5.28a5.07,5.07,0,0,1,5,5,4.78,4.78,0,0,1-2.5,4.25,0.51,0.51,0,0,0-.14.79l2.57,6a0.47,0.47,0,0,1-.46.72H436a0.69,0.69,0,0,1-.7-0.48l-2.45-5.93a0.46,0.46,0,0,0-.43-0.31h-0.62Zm0-6.72a0.23,0.23,0,0,0-.24.24V60.9a0.23,0.23,0,0,0,.24.24h2.16a1.68,1.68,0,0,0,0-3.36h-2.16Z"/>
      <path class="cls-12" d="M444.4,70.86a0.46,0.46,0,0,1-.46.36h-2.52a0.42,0.42,0,0,1-.48-0.48l4.3-16a0.46,0.46,0,0,1,.46-0.36h3.22a0.46,0.46,0,0,1,.46.36l4.27,16a0.42,0.42,0,0,1-.48.48h-2.52a0.48,0.48,0,0,1-.46-0.36l-0.74-2.47a0.39,0.39,0,0,0-.36-0.36h-3.65a0.37,0.37,0,0,0-.36.36ZM446,64.4a0.18,0.18,0,0,0,.19.26h2.21a0.18,0.18,0,0,0,.19-0.26l-1.15-5.76a0.11,0.11,0,0,0-.12-0.1h0a0.11,0.11,0,0,0-.12.1Z"/>
      <path class="cls-12" d="M466.63,70.74a0.48,0.48,0,0,1-.48.48h-2.83a0.62,0.62,0,0,1-.65-0.41l-3.26-8.42c0-.14-0.22-0.1-0.22,0v8.3a0.48,0.48,0,0,1-.48.48h-2.4a0.48,0.48,0,0,1-.48-0.48V54.9a0.48,0.48,0,0,1,.48-0.48h2.86a0.59,0.59,0,0,1,.6.43L463.05,64c0,0.14.22,0.1,0.22,0v-9a0.48,0.48,0,0,1,.48-0.48h2.4a0.48,0.48,0,0,1,.48.48V70.74Z"/>
      <path class="cls-12" d="M477.6,66a0.5,0.5,0,0,1,.48-0.48h2.4A0.48,0.48,0,0,1,481,66a5.4,5.4,0,0,1-5.71,5.5,5.67,5.67,0,0,1-5.71-5.3,31.49,31.49,0,0,1,0-6.72,5.67,5.67,0,0,1,5.71-5.3,5.4,5.4,0,0,1,5.71,5.5,0.48,0.48,0,0,1-.48.48h-2.4a0.5,0.5,0,0,1-.48-0.48,2.21,2.21,0,0,0-2.35-2.11,2.12,2.12,0,0,0-2.33,1.92,31.49,31.49,0,0,0,0,6.72,2.12,2.12,0,0,0,2.33,1.92A2.21,2.21,0,0,0,477.6,66Z"/>
      <path class="cls-12" d="M487,60.9a0.23,0.23,0,0,0,.24.24h3.65a0.23,0.23,0,0,0,.24-0.24v-6a0.48,0.48,0,0,1,.48-0.48H494a0.48,0.48,0,0,1,.48.48V70.74a0.48,0.48,0,0,1-.48.48h-2.4a0.48,0.48,0,0,1-.48-0.48v-6a0.23,0.23,0,0,0-.24-0.24h-3.65a0.23,0.23,0,0,0-.24.24v6a0.6,0.6,0,0,1-.6.48h-2.28a0.48,0.48,0,0,1-.48-0.48V54.9a0.48,0.48,0,0,1,.48-0.48h2.4a0.48,0.48,0,0,1,.48.48v6Z"/>
    </g>
    <g>
      <path class="cls-12" d="M454.77,491.34a4.2,4.2,0,0,1,0,8.4h-1.9a0.19,0.19,0,0,0-.2.2v5a0.4,0.4,0,0,1-.4.4h-1.1a0.4,0.4,0,0,1-.4-0.4v-13.2a0.4,0.4,0,0,1,.4-0.4h3.6Zm-1.9,1.9a0.19,0.19,0,0,0-.2.2v4.2a0.19,0.19,0,0,0,.2.2h1.9a2.3,2.3,0,0,0,0-4.6h-1.9Z"/>
      <path class="cls-12" d="M459.71,495.75a0.4,0.4,0,0,1,.4-0.4h1a0.4,0.4,0,0,1,.4.4v6a2.22,2.22,0,0,0,4.4.1v-6.1a0.4,0.4,0,0,1,.4-0.4h1a0.4,0.4,0,0,1,.4.4v9.2a0.4,0.4,0,0,1-.4.4h-0.88a0.38,0.38,0,0,1-.28-0.14,0.76,0.76,0,0,0-.5-0.32c-0.58,0-.66.66-2.14,0.66a3.64,3.64,0,0,1-3.8-3.8v-6Z"/>
      <path class="cls-12" d="M472,504.95a0.4,0.4,0,0,1-.4.4h-1a0.4,0.4,0,0,1-.4-0.4V491.6a0.4,0.4,0,0,1,.4-0.4h1a0.4,0.4,0,0,1,.4.4v13.34Z"/>
      <path class="cls-12" d="M476.41,504.95a0.4,0.4,0,0,1-.4.4h-1a0.4,0.4,0,0,1-.4-0.4V491.6a0.4,0.4,0,0,1,.4-0.4h1a0.4,0.4,0,0,1,.4.4v13.34Z"/>
      <path class="cls-12" d="M485.71,499.75a0.19,0.19,0,0,0-.2.2v5a0.4,0.4,0,0,1-.4.4H484a0.4,0.4,0,0,1-.4-0.4v-13.2a0.4,0.4,0,0,1,.4-0.4h3.6a4.17,4.17,0,0,1,2.12,7.78c-0.38.22-.52,0.4-0.34,0.76l2.36,4.86a0.39,0.39,0,0,1-.38.6h-1.12a0.59,0.59,0,0,1-.58-0.4l-2.36-5a0.39,0.39,0,0,0-.38-0.24h-1.22Zm0-6.5a0.19,0.19,0,0,0-.2.2v4.2a0.19,0.19,0,0,0,.2.2h1.9a2.3,2.3,0,1,0,0-4.6h-1.9Z"/>
      <path class="cls-12" d="M495.19,500.93a0.19,0.19,0,0,0-.2.2c0,1.82.94,2.62,2.32,2.62a2,2,0,0,0,2.06-1.26,0.45,0.45,0,0,1,.46-0.34h1a0.32,0.32,0,0,1,.34.4,3.67,3.67,0,0,1-3.88,3,4,4,0,0,1-4.1-3.8,21.62,21.62,0,0,1,0-2.8,4,4,0,0,1,4.1-3.8,3.72,3.72,0,0,1,4,4v1.38a0.4,0.4,0,0,1-.4.4h-5.72Zm-0.16-1.8a0.19,0.19,0,0,0,.2.2h4.16a0.19,0.19,0,0,0,.2-0.2,2.12,2.12,0,0,0-2.26-2.18A2.17,2.17,0,0,0,495,499.13Z"/>
      <path class="cls-12" d="M509.09,495.81a0.76,0.76,0,0,0,.5-0.32,0.38,0.38,0,0,1,.28-0.14h0.68a0.4,0.4,0,0,1,.4.4v13.2a0.4,0.4,0,0,1-.4.4h-1a0.4,0.4,0,0,1-.4-0.4v-3.4c0-.38-0.14-0.5-0.44-0.5a8.84,8.84,0,0,1-1.86.5,3.91,3.91,0,0,1-3.8-3.8,21.62,21.62,0,0,1,0-2.8,3.9,3.9,0,0,1,3.8-3.8C508.33,495.15,508.51,495.81,509.09,495.81Zm0.26,3.14a2.32,2.32,0,0,0-4.6,0,21.62,21.62,0,0,0,0,2.8,2.32,2.32,0,0,0,4.6,0A21.62,21.62,0,0,0,509.35,498.95Z"/>
      <path class="cls-12" d="M513.28,495.75a0.4,0.4,0,0,1,.4-0.4h1a0.4,0.4,0,0,1,.4.4v6a2.22,2.22,0,0,0,4.4.1v-6.1a0.4,0.4,0,0,1,.4-0.4h1a0.4,0.4,0,0,1,.4.4v9.2a0.4,0.4,0,0,1-.4.4H520a0.38,0.38,0,0,1-.28-0.14,0.76,0.76,0,0,0-.5-0.32c-0.58,0-.66.66-2.14,0.66a3.65,3.65,0,0,1-3.8-3.8v-6Z"/>
      <path class="cls-12" d="M525.36,500.93a0.19,0.19,0,0,0-.2.2c0,1.82.94,2.62,2.32,2.62a2,2,0,0,0,2.06-1.26,0.45,0.45,0,0,1,.46-0.34h1a0.32,0.32,0,0,1,.34.4,3.67,3.67,0,0,1-3.88,3,4,4,0,0,1-4.1-3.8,21.62,21.62,0,0,1,0-2.8,4,4,0,0,1,4.1-3.8,3.72,3.72,0,0,1,4,4v1.38a0.4,0.4,0,0,1-.4.4h-5.72Zm-0.16-1.8a0.19,0.19,0,0,0,.2.2h4.16a0.19,0.19,0,0,0,.2-0.2,2.12,2.12,0,0,0-2.26-2.18A2.17,2.17,0,0,0,525.21,499.13Z"/>
      <path class="cls-12" d="M540.19,498.55h-1a0.4,0.4,0,0,1-.4-0.4c0-.7-0.54-1.3-1.86-1.3s-1.76.62-1.76,1.2c0,0.78.78,1,1.76,1.22,1.68,0.3,3.94.64,3.94,3.08,0,2.14-1.86,3.2-3.94,3.2s-4-1-4-3.2v-0.26a0.4,0.4,0,0,1,.4-0.4h1a0.4,0.4,0,0,1,.4.4v0.26c0,1.2,1.24,1.48,2.16,1.48,1.08,0,2.14-.28,2.14-1.48,0-.82-1-1-2.14-1.28-1.64-.34-3.62-0.76-3.62-3,0-1.8,1.8-2.9,3.62-2.9s3.66,1.1,3.66,3A0.4,0.4,0,0,1,540.19,498.55Z"/>
      <path class="cls-12" d="M547.91,495.45a0.4,0.4,0,0,1,.4.4v1a0.4,0.4,0,0,1-.4.4h-2.3a0.19,0.19,0,0,0-.2.2v4.7a1.33,1.33,0,0,0,1.6,1.46h1.1a0.4,0.4,0,0,1,.4.4v0.94a0.4,0.4,0,0,1-.4.4H547c-2.08,0-3.4-.9-3.4-3.2v-4.7a0.19,0.19,0,0,0-.2-0.2H542a0.4,0.4,0,0,1-.4-0.4v-1a0.4,0.4,0,0,1,.4-0.4h1.4a0.19,0.19,0,0,0,.2-0.2v-3.1a0.4,0.4,0,0,1,.4-0.4h1a0.4,0.4,0,0,1,.4.4v3.1a0.19,0.19,0,0,0,.2.2h2.3Z"/>
    </g>
    <g>
      <path class="cls-13" d="M290.79,626.91a0.1,0.1,0,0,0,.2,0l2.76-9.88a0.39,0.39,0,0,1,.42-0.34h2a0.4,0.4,0,0,1,.4.4v13.2a0.4,0.4,0,0,1-.4.4h-1.06a0.4,0.4,0,0,1-.4-0.4v-10a0.08,0.08,0,0,0-.16,0l-2.86,10.1a0.41,0.41,0,0,1-.42.34h-0.84a0.41,0.41,0,0,1-.42-0.34l-2.86-10.1a0.08,0.08,0,0,0-.16,0v10a0.4,0.4,0,0,1-.4.4h-1.06a0.4,0.4,0,0,1-.4-0.4v-13.2a0.4,0.4,0,0,1,.4-0.4h2a0.39,0.39,0,0,1,.42.34Z"/>
      <path class="cls-13" d="M300.79,626.27a0.19,0.19,0,0,0-.2.2c0,1.82.94,2.62,2.32,2.62a2,2,0,0,0,2.06-1.26,0.45,0.45,0,0,1,.46-0.34h1a0.32,0.32,0,0,1,.34.4,3.67,3.67,0,0,1-3.88,3,4,4,0,0,1-4.1-3.8,21.79,21.79,0,0,1,0-2.8,4,4,0,0,1,4.1-3.8,3.72,3.72,0,0,1,4,4v1.38a0.4,0.4,0,0,1-.4.4h-5.72Zm-0.16-1.8a0.19,0.19,0,0,0,.2.2H305a0.19,0.19,0,0,0,.2-0.2,2.12,2.12,0,0,0-2.26-2.18A2.17,2.17,0,0,0,300.63,624.47Z"/>
      <path class="cls-13" d="M313.75,622.47a2.75,2.75,0,0,0-3,3v4.8a0.4,0.4,0,0,1-.4.4h-1a0.4,0.4,0,0,1-.4-0.4v-9.2a0.4,0.4,0,0,1,.4-0.4H310a0.4,0.4,0,0,1,.4.4c0.06,0.26.06,0.7,0.36,0.7,0.48,0,.82-1.1,3-1.1h0.4a0.4,0.4,0,0,1,.4.4v1a0.4,0.4,0,0,1-.4.4h-0.4Z"/>
      <path class="cls-13" d="M321.05,621.15a0.76,0.76,0,0,0,.5-0.32,0.38,0.38,0,0,1,.28-0.14h0.68a0.4,0.4,0,0,1,.4.4v10.2a3.6,3.6,0,0,1-3.66,3.6,3.39,3.39,0,0,1-3.64-2.74,0.34,0.34,0,0,1,.36-0.46h1a0.44,0.44,0,0,1,.52.4,1.65,1.65,0,0,0,1.8,1,1.79,1.79,0,0,0,1.86-1.8v-0.44c0-.38-0.16-0.48-0.44-0.46a7.75,7.75,0,0,1-1.86.5,3.91,3.91,0,0,1-3.8-3.8,21.79,21.79,0,0,1,0-2.8,3.91,3.91,0,0,1,3.8-3.8C320.29,620.49,320.47,621.15,321.05,621.15Zm0.26,3.14a2.32,2.32,0,0,0-4.6,0,21.79,21.79,0,0,0,0,2.8,2.32,2.32,0,0,0,4.6,0A21.79,21.79,0,0,0,321.31,624.29Z"/>
      <path class="cls-13" d="M327,626.27a0.19,0.19,0,0,0-.2.2c0,1.82.94,2.62,2.32,2.62a2,2,0,0,0,2.06-1.26,0.45,0.45,0,0,1,.46-0.34h1a0.32,0.32,0,0,1,.34.4,3.67,3.67,0,0,1-3.88,3,4,4,0,0,1-4.1-3.8,21.79,21.79,0,0,1,0-2.8,4,4,0,0,1,4.1-3.8,3.72,3.72,0,0,1,4,4v1.38a0.4,0.4,0,0,1-.4.4H327Zm-0.16-1.8a0.19,0.19,0,0,0,.2.2h4.16a0.19,0.19,0,0,0,.2-0.2,2.12,2.12,0,0,0-2.26-2.18A2.17,2.17,0,0,0,326.87,624.47Z"/>
      <path class="cls-13" d="M348.65,626.69a4.29,4.29,0,0,1-4.5,4.16,4.41,4.41,0,0,1-4.5-4.16,30.13,30.13,0,0,1,0-6,4.49,4.49,0,0,1,4.5-4.16,4.2,4.2,0,0,1,4.5,4.16V621a0.4,0.4,0,0,1-.4.4h-1.1a0.4,0.4,0,0,1-.4-0.4v-0.28a2.4,2.4,0,0,0-2.6-2.26,2.5,2.5,0,0,0-2.6,2.26,30.13,30.13,0,0,0,0,6,2.54,2.54,0,0,0,2.6,2.26,2.37,2.37,0,0,0,2.6-2.26v-0.28a0.4,0.4,0,0,1,.4-0.4h1.1a0.4,0.4,0,0,1,.4.4v0.28Z"/>
      <path class="cls-13" d="M350.35,624.29a4.11,4.11,0,0,1,8.2,0,21.79,21.79,0,0,1,0,2.8,4.11,4.11,0,0,1-8.2,0A21.79,21.79,0,0,1,350.35,624.29Zm1.8,2.8a2.32,2.32,0,0,0,4.6,0,21.79,21.79,0,0,0,0-2.8,2.32,2.32,0,0,0-4.6,0A21.79,21.79,0,0,0,352.15,627.09Z"/>
      <path class="cls-13" d="M371.93,624.29a1.92,1.92,0,0,0-1.94-2,1.87,1.87,0,0,0-1.9,1.9v6.1a0.4,0.4,0,0,1-.4.4h-1a0.4,0.4,0,0,1-.4-0.4v-6a2,2,0,0,0-1.92-2,1.91,1.91,0,0,0-1.94,1.9v6.1a0.4,0.4,0,0,1-.4.4h-1a0.4,0.4,0,0,1-.4-0.4v-9.2a0.4,0.4,0,0,1,.4-0.4h0.88a0.38,0.38,0,0,1,.28.14,0.68,0.68,0,0,0,.5.32c0.62,0,1-.66,2.18-0.66a3.32,3.32,0,0,1,2.18,1,0.51,0.51,0,0,0,.78,0,3.55,3.55,0,0,1,2.34-1c2.3,0,3.54,1.58,3.54,3.8v6a0.4,0.4,0,0,1-.4.4h-1a0.4,0.4,0,0,1-.4-0.4v-6Z"/>
      <path class="cls-13" d="M387.31,624.29a1.92,1.92,0,0,0-1.94-2,1.87,1.87,0,0,0-1.9,1.9v6.1a0.4,0.4,0,0,1-.4.4h-1a0.4,0.4,0,0,1-.4-0.4v-6a2,2,0,0,0-1.92-2,1.91,1.91,0,0,0-1.94,1.9v6.1a0.4,0.4,0,0,1-.4.4h-1a0.4,0.4,0,0,1-.4-0.4v-9.2a0.4,0.4,0,0,1,.4-0.4h0.88a0.38,0.38,0,0,1,.28.14,0.68,0.68,0,0,0,.5.32c0.62,0,1-.66,2.18-0.66a3.32,3.32,0,0,1,2.18,1,0.51,0.51,0,0,0,.78,0,3.55,3.55,0,0,1,2.34-1c2.3,0,3.54,1.58,3.54,3.8v6a0.4,0.4,0,0,1-.4.4h-1a0.4,0.4,0,0,1-.4-0.4v-6Z"/>
      <path class="cls-13" d="M393.51,618.25a0.32,0.32,0,0,1-.32.32h-1.36a0.32,0.32,0,0,1-.32-0.32v-1.38a0.33,0.33,0,0,1,.32-0.32h1.36a0.33,0.33,0,0,1,.32.32v1.38Zm-0.06,12a0.4,0.4,0,0,1-.4.4h-1a0.4,0.4,0,0,1-.4-0.4v-9.2a0.4,0.4,0,0,1,.4-0.4h1a0.4,0.4,0,0,1,.4.4v9.2Z"/>
      <path class="cls-13" d="M401.21,620.79a0.4,0.4,0,0,1,.4.4v1a0.4,0.4,0,0,1-.4.4h-2.3a0.19,0.19,0,0,0-.2.2v4.7a1.33,1.33,0,0,0,1.6,1.46h1.1a0.4,0.4,0,0,1,.4.4v0.94a0.4,0.4,0,0,1-.4.4h-1.1c-2.08,0-3.4-.9-3.4-3.2v-4.7a0.19,0.19,0,0,0-.2-0.2h-1.4a0.4,0.4,0,0,1-.4-0.4v-1a0.4,0.4,0,0,1,.4-0.4h1.4a0.19,0.19,0,0,0,.2-0.2v-3.1a0.4,0.4,0,0,1,.4-0.4h1a0.4,0.4,0,0,1,.4.4v3.1a0.19,0.19,0,0,0,.2.2h2.3Z"/>
      <path class="cls-13" d="M325.2,654.73a0.4,0.4,0,0,1,.4.4v1a0.4,0.4,0,0,1-.4.4h-0.36a4.44,4.44,0,0,1-4.5-4.2,50.75,50.75,0,0,1,0-7.8,4.53,4.53,0,0,1,4.5-4.2h0.24a0.4,0.4,0,0,1,.4.4v1a0.4,0.4,0,0,1-.4.4h-0.24a2.79,2.79,0,0,0-2.7,2.44,39.15,39.15,0,0,0,0,7.8,2.8,2.8,0,0,0,2.7,2.44h0.36Z"/>
      <path class="cls-13" d="M331.66,642.79v11.5a0.4,0.4,0,0,1-.4.4h-1.1a0.4,0.4,0,0,1-.4-0.4v-11.5a0.19,0.19,0,0,0-.2-0.2H326.9a0.4,0.4,0,0,1-.4-0.4v-1.1a0.4,0.4,0,0,1,.4-0.4h7.6a0.4,0.4,0,0,1,.4.4v1.1a0.4,0.4,0,0,1-.4.4h-2.64A0.19,0.19,0,0,0,331.66,642.79Z"/>
      <path class="cls-13" d="M336.7,650.27a0.19,0.19,0,0,0-.2.2c0,1.82.94,2.62,2.32,2.62a2,2,0,0,0,2.06-1.26,0.45,0.45,0,0,1,.46-0.34h1a0.32,0.32,0,0,1,.34.4,3.67,3.67,0,0,1-3.88,3,4,4,0,0,1-4.1-3.8,21.79,21.79,0,0,1,0-2.8,4,4,0,0,1,4.1-3.8,3.72,3.72,0,0,1,4,4v1.38a0.4,0.4,0,0,1-.4.4H336.7Zm-0.16-1.8a0.19,0.19,0,0,0,.2.2h4.16a0.19,0.19,0,0,0,.2-0.2,2.12,2.12,0,0,0-2.26-2.18A2.17,2.17,0,0,0,336.54,648.47Z"/>
      <path class="cls-13" d="M351.52,647.89h-1a0.4,0.4,0,0,1-.4-0.4c0-.7-0.54-1.3-1.86-1.3s-1.76.62-1.76,1.2c0,0.78.78,1,1.76,1.22,1.68,0.3,3.94.64,3.94,3.08,0,2.14-1.86,3.2-3.94,3.2s-4-1-4-3.2v-0.26a0.4,0.4,0,0,1,.4-0.4h1a0.4,0.4,0,0,1,.4.4v0.26c0,1.2,1.24,1.48,2.16,1.48,1.08,0,2.14-.28,2.14-1.48,0-.82-1-1-2.14-1.28-1.64-.34-3.62-0.76-3.62-3,0-1.8,1.8-2.9,3.62-2.9s3.66,1.1,3.66,3A0.4,0.4,0,0,1,351.52,647.89Z"/>
      <path class="cls-13" d="M359.24,644.79a0.4,0.4,0,0,1,.4.4v1a0.4,0.4,0,0,1-.4.4h-2.3a0.19,0.19,0,0,0-.2.2v4.7a1.33,1.33,0,0,0,1.6,1.46h1.1a0.4,0.4,0,0,1,.4.4v0.94a0.4,0.4,0,0,1-.4.4h-1.1c-2.08,0-3.4-.9-3.4-3.2v-4.7a0.19,0.19,0,0,0-.2-0.2h-1.4a0.4,0.4,0,0,1-.4-0.4v-1a0.4,0.4,0,0,1,.4-0.4h1.4a0.19,0.19,0,0,0,.2-0.2v-3.1a0.4,0.4,0,0,1,.4-0.4h1a0.4,0.4,0,0,1,.4.4v3.1a0.19,0.19,0,0,0,.2.2h2.3Z"/>
      <path class="cls-13" d="M361,654.73a2.8,2.8,0,0,0,2.7-2.44,39.08,39.08,0,0,0,0-7.8A2.79,2.79,0,0,0,361,642h-0.24a0.4,0.4,0,0,1-.4-0.4v-1a0.4,0.4,0,0,1,.4-0.4H361a4.53,4.53,0,0,1,4.5,4.2,50.75,50.75,0,0,1,0,7.8,4.44,4.44,0,0,1-4.5,4.2h-0.36a0.4,0.4,0,0,1-.4-0.4v-1a0.4,0.4,0,0,1,.4-0.4H361Z"/>
    </g>
    <g>
      <path class="cls-13" d="M290.79,782.44a0.1,0.1,0,0,0,.2,0l2.76-9.88a0.39,0.39,0,0,1,.42-0.34h2a0.4,0.4,0,0,1,.4.4v13.2a0.4,0.4,0,0,1-.4.4h-1.06a0.4,0.4,0,0,1-.4-0.4v-10a0.08,0.08,0,0,0-.16,0l-2.86,10.1a0.41,0.41,0,0,1-.42.34h-0.84a0.41,0.41,0,0,1-.42-0.34l-2.86-10.1a0.08,0.08,0,0,0-.16,0v10a0.4,0.4,0,0,1-.4.4h-1.06a0.4,0.4,0,0,1-.4-0.4v-13.2a0.4,0.4,0,0,1,.4-0.4h2a0.39,0.39,0,0,1,.42.34Z"/>
      <path class="cls-13" d="M300.79,781.8a0.19,0.19,0,0,0-.2.2c0,1.82.94,2.62,2.32,2.62a2,2,0,0,0,2.06-1.26,0.45,0.45,0,0,1,.46-0.34h1a0.32,0.32,0,0,1,.34.4,3.67,3.67,0,0,1-3.88,3,4,4,0,0,1-4.1-3.8,21.79,21.79,0,0,1,0-2.8,4,4,0,0,1,4.1-3.8,3.72,3.72,0,0,1,4,4v1.38a0.4,0.4,0,0,1-.4.4h-5.72Zm-0.16-1.8a0.19,0.19,0,0,0,.2.2H305a0.19,0.19,0,0,0,.2-0.2,2.12,2.12,0,0,0-2.26-2.18A2.17,2.17,0,0,0,300.63,780Z"/>
      <path class="cls-13" d="M313.75,778a2.75,2.75,0,0,0-3,3v4.8a0.4,0.4,0,0,1-.4.4h-1a0.4,0.4,0,0,1-.4-0.4v-9.2a0.4,0.4,0,0,1,.4-0.4H310a0.4,0.4,0,0,1,.4.4c0.06,0.26.06,0.7,0.36,0.7,0.48,0,.82-1.1,3-1.1h0.4a0.4,0.4,0,0,1,.4.4v1a0.4,0.4,0,0,1-.4.4h-0.4Z"/>
      <path class="cls-13" d="M321.05,776.68a0.76,0.76,0,0,0,.5-0.32,0.38,0.38,0,0,1,.28-0.14h0.68a0.4,0.4,0,0,1,.4.4v10.2a3.6,3.6,0,0,1-3.66,3.6,3.39,3.39,0,0,1-3.64-2.74,0.34,0.34,0,0,1,.36-0.46h1a0.44,0.44,0,0,1,.52.4,1.65,1.65,0,0,0,1.8,1,1.79,1.79,0,0,0,1.86-1.8v-0.44c0-.38-0.16-0.48-0.44-0.46a7.75,7.75,0,0,1-1.86.5,3.91,3.91,0,0,1-3.8-3.8,21.79,21.79,0,0,1,0-2.8,3.91,3.91,0,0,1,3.8-3.8C320.29,776,320.47,776.68,321.05,776.68Zm0.26,3.14a2.32,2.32,0,0,0-4.6,0,21.79,21.79,0,0,0,0,2.8,2.32,2.32,0,0,0,4.6,0A21.79,21.79,0,0,0,321.31,779.82Z"/>
      <path class="cls-13" d="M327,781.8a0.19,0.19,0,0,0-.2.2c0,1.82.94,2.62,2.32,2.62a2,2,0,0,0,2.06-1.26,0.45,0.45,0,0,1,.46-0.34h1a0.32,0.32,0,0,1,.34.4,3.67,3.67,0,0,1-3.88,3,4,4,0,0,1-4.1-3.8,21.79,21.79,0,0,1,0-2.8,4,4,0,0,1,4.1-3.8,3.72,3.72,0,0,1,4,4v1.38a0.4,0.4,0,0,1-.4.4H327Zm-0.16-1.8a0.19,0.19,0,0,0,.2.2h4.16a0.19,0.19,0,0,0,.2-0.2,2.12,2.12,0,0,0-2.26-2.18A2.17,2.17,0,0,0,326.87,780Z"/>
      <path class="cls-13" d="M348.65,782.22a4.29,4.29,0,0,1-4.5,4.16,4.41,4.41,0,0,1-4.5-4.16,30.13,30.13,0,0,1,0-6,4.49,4.49,0,0,1,4.5-4.16,4.2,4.2,0,0,1,4.5,4.16v0.28a0.4,0.4,0,0,1-.4.4h-1.1a0.4,0.4,0,0,1-.4-0.4v-0.28a2.4,2.4,0,0,0-2.6-2.26,2.5,2.5,0,0,0-2.6,2.26,30.13,30.13,0,0,0,0,6,2.54,2.54,0,0,0,2.6,2.26,2.37,2.37,0,0,0,2.6-2.26v-0.28a0.4,0.4,0,0,1,.4-0.4h1.1a0.4,0.4,0,0,1,.4.4v0.28Z"/>
      <path class="cls-13" d="M350.35,779.82a4.11,4.11,0,0,1,8.2,0,21.79,21.79,0,0,1,0,2.8,4.11,4.11,0,0,1-8.2,0A21.79,21.79,0,0,1,350.35,779.82Zm1.8,2.8a2.32,2.32,0,0,0,4.6,0,22,22,0,0,0,0-2.8,2.32,2.32,0,0,0-4.6,0A21.79,21.79,0,0,0,352.15,782.62Z"/>
      <path class="cls-13" d="M371.93,779.82a1.92,1.92,0,0,0-1.94-2,1.87,1.87,0,0,0-1.9,1.9v6.1a0.4,0.4,0,0,1-.4.4h-1a0.4,0.4,0,0,1-.4-0.4v-6a2,2,0,0,0-1.92-2,1.91,1.91,0,0,0-1.94,1.9v6.1a0.4,0.4,0,0,1-.4.4h-1a0.4,0.4,0,0,1-.4-0.4v-9.2a0.4,0.4,0,0,1,.4-0.4h0.88a0.38,0.38,0,0,1,.28.14,0.68,0.68,0,0,0,.5.32c0.62,0,1-.66,2.18-0.66a3.32,3.32,0,0,1,2.18,1,0.51,0.51,0,0,0,.78,0,3.55,3.55,0,0,1,2.34-1c2.3,0,3.54,1.58,3.54,3.8v6a0.4,0.4,0,0,1-.4.4h-1a0.4,0.4,0,0,1-.4-0.4v-6Z"/>
      <path class="cls-13" d="M387.31,779.82a1.92,1.92,0,0,0-1.94-2,1.87,1.87,0,0,0-1.9,1.9v6.1a0.4,0.4,0,0,1-.4.4h-1a0.4,0.4,0,0,1-.4-0.4v-6a2,2,0,0,0-1.92-2,1.91,1.91,0,0,0-1.94,1.9v6.1a0.4,0.4,0,0,1-.4.4h-1a0.4,0.4,0,0,1-.4-0.4v-9.2a0.4,0.4,0,0,1,.4-0.4h0.88a0.38,0.38,0,0,1,.28.14,0.68,0.68,0,0,0,.5.32c0.62,0,1-.66,2.18-0.66a3.32,3.32,0,0,1,2.18,1,0.51,0.51,0,0,0,.78,0,3.55,3.55,0,0,1,2.34-1c2.3,0,3.54,1.58,3.54,3.8v6a0.4,0.4,0,0,1-.4.4h-1a0.4,0.4,0,0,1-.4-0.4v-6Z"/>
      <path class="cls-13" d="M393.51,773.78a0.32,0.32,0,0,1-.32.32h-1.36a0.32,0.32,0,0,1-.32-0.32V772.4a0.33,0.33,0,0,1,.32-0.32h1.36a0.33,0.33,0,0,1,.32.32v1.38Zm-0.06,12a0.4,0.4,0,0,1-.4.4h-1a0.4,0.4,0,0,1-.4-0.4v-9.2a0.4,0.4,0,0,1,.4-0.4h1a0.4,0.4,0,0,1,.4.4v9.2Z"/>
      <path class="cls-13" d="M401.21,776.32a0.4,0.4,0,0,1,.4.4v1a0.4,0.4,0,0,1-.4.4h-2.3a0.19,0.19,0,0,0-.2.2V783a1.33,1.33,0,0,0,1.6,1.46h1.1a0.4,0.4,0,0,1,.4.4v0.94a0.4,0.4,0,0,1-.4.4h-1.1c-2.08,0-3.4-.9-3.4-3.2v-4.7a0.19,0.19,0,0,0-.2-0.2h-1.4a0.4,0.4,0,0,1-.4-0.4v-1a0.4,0.4,0,0,1,.4-0.4h1.4a0.19,0.19,0,0,0,.2-0.2V773a0.4,0.4,0,0,1,.4-0.4h1a0.4,0.4,0,0,1,.4.4v3.1a0.19,0.19,0,0,0,.2.2h2.3Z"/>
      <path class="cls-13" d="M308.21,810.26a0.4,0.4,0,0,1,.4.4v1a0.4,0.4,0,0,1-.4.4h-0.36a4.44,4.44,0,0,1-4.5-4.2,50.75,50.75,0,0,1,0-7.8,4.53,4.53,0,0,1,4.5-4.2h0.24a0.4,0.4,0,0,1,.4.4v1a0.4,0.4,0,0,1-.4.4h-0.24a2.79,2.79,0,0,0-2.7,2.44,39.15,39.15,0,0,0,0,7.8,2.8,2.8,0,0,0,2.7,2.44h0.36Z"/>
      <path class="cls-13" d="M318.93,806.22a4.32,4.32,0,0,1-4.5,4.16,4.22,4.22,0,0,1-4.5-4.16v-9.6a0.4,0.4,0,0,1,.4-0.4h1.1a0.4,0.4,0,0,1,.4.4v9.6a2.31,2.31,0,0,0,2.6,2.26,2.38,2.38,0,0,0,2.6-2.26v-9.6a0.4,0.4,0,0,1,.4-0.4h1.1a0.4,0.4,0,0,1,.4.4v9.6Z"/>
      <path class="cls-13" d="M329.15,803.82a21.79,21.79,0,0,1,0,2.8,3.91,3.91,0,0,1-3.8,3.8,8.83,8.83,0,0,1-1.86-.5c-0.3,0-.44.12-0.44,0.5v3.4a0.4,0.4,0,0,1-.4.4h-1a0.4,0.4,0,0,1-.4-0.4v-13.2a0.4,0.4,0,0,1,.4-0.4h0.68a0.38,0.38,0,0,1,.28.14,0.76,0.76,0,0,0,.5.32c0.58,0,.76-0.66,2.24-0.66A3.91,3.91,0,0,1,329.15,803.82Zm-1.7,0a2.32,2.32,0,0,0-4.6,0,21.79,21.79,0,0,0,0,2.8,2.32,2.32,0,0,0,4.6,0A21.79,21.79,0,0,0,327.45,803.82Z"/>
      <path class="cls-13" d="M331,806.62a21.79,21.79,0,0,1,0-2.8,3.91,3.91,0,0,1,3.8-3.8,8.85,8.85,0,0,1,1.86.5,0.4,0.4,0,0,0,.44-0.5v-3.54a0.4,0.4,0,0,1,.4-0.4h1a0.4,0.4,0,0,1,.4.4v13.34a0.4,0.4,0,0,1-.4.4h-0.68a0.38,0.38,0,0,1-.28-0.14,0.76,0.76,0,0,0-.5-0.32c-0.58,0-.76.66-2.24,0.66A3.91,3.91,0,0,1,331,806.62Zm1.7,0a2.32,2.32,0,0,0,4.6,0,21.79,21.79,0,0,0,0-2.8,2.32,2.32,0,0,0-4.6,0A21.79,21.79,0,0,0,332.65,806.62Z"/>
      <path class="cls-13" d="M343.23,802.88a0.36,0.36,0,0,1-.46.34h-0.9a0.35,0.35,0,0,1-.4-0.4c0-1.86,1.92-2.8,3.62-2.8,2.26,0,3.66,1,3.66,3.2v6.6a0.4,0.4,0,0,1-.4.4h-0.68a0.32,0.32,0,0,1-.28-0.14,0.69,0.69,0,0,0-.4-0.42c-0.36,0-.86.76-2.34,0.76-2.46,0-3.64-1.5-3.64-3.2a3,3,0,0,1,3.3-3h2.44a0.19,0.19,0,0,0,.2-0.2v-0.76a1.58,1.58,0,0,0-1.86-1.6C344.39,801.62,343.23,801.92,343.23,802.88Zm1.08,2.94a1.3,1.3,0,0,0-1.5,1.38,1.52,1.52,0,0,0,1.78,1.56c1.84,0,2.52-.74,2.52-2.1V806a0.19,0.19,0,0,0-.2-0.2h-2.6Z"/>
      <path class="cls-13" d="M356.29,800.32a0.4,0.4,0,0,1,.4.4v1a0.4,0.4,0,0,1-.4.4H354a0.19,0.19,0,0,0-.2.2V807a1.33,1.33,0,0,0,1.6,1.46h1.1a0.4,0.4,0,0,1,.4.4v0.94a0.4,0.4,0,0,1-.4.4h-1.1c-2.08,0-3.4-.9-3.4-3.2v-4.7a0.19,0.19,0,0,0-.2-0.2h-1.4a0.4,0.4,0,0,1-.4-0.4v-1a0.4,0.4,0,0,1,.4-0.4h1.4a0.19,0.19,0,0,0,.2-0.2V797a0.4,0.4,0,0,1,.4-0.4h1a0.4,0.4,0,0,1,.4.4v3.1a0.19,0.19,0,0,0,.2.2h2.3Z"/>
      <path class="cls-13" d="M360,805.8a0.19,0.19,0,0,0-.2.2c0,1.82.94,2.62,2.32,2.62a2,2,0,0,0,2.06-1.26,0.45,0.45,0,0,1,.46-0.34h1a0.32,0.32,0,0,1,.34.4,3.67,3.67,0,0,1-3.88,3,4,4,0,0,1-4.1-3.8,21.79,21.79,0,0,1,0-2.8,4,4,0,0,1,4.1-3.8,3.72,3.72,0,0,1,4,4v1.38a0.4,0.4,0,0,1-.4.4H360Zm-0.16-1.8a0.19,0.19,0,0,0,.2.2h4.16a0.19,0.19,0,0,0,.2-0.2,2.12,2.12,0,0,0-2.26-2.18A2.17,2.17,0,0,0,359.81,804Z"/>
      <path class="cls-13" d="M367.83,806.62a21.79,21.79,0,0,1,0-2.8,3.91,3.91,0,0,1,3.8-3.8,8.85,8.85,0,0,1,1.86.5,0.4,0.4,0,0,0,.44-0.5v-3.54a0.4,0.4,0,0,1,.4-0.4h1a0.4,0.4,0,0,1,.4.4v13.34a0.4,0.4,0,0,1-.4.4h-0.68a0.38,0.38,0,0,1-.28-0.14,0.76,0.76,0,0,0-.5-0.32c-0.58,0-.76.66-2.24,0.66A3.91,3.91,0,0,1,367.83,806.62Zm1.7,0a2.32,2.32,0,0,0,4.6,0,21.79,21.79,0,0,0,0-2.8,2.32,2.32,0,0,0-4.6,0A21.79,21.79,0,0,0,369.53,806.62Z"/>
      <path class="cls-13" d="M378,810.26a2.8,2.8,0,0,0,2.7-2.44,39.08,39.08,0,0,0,0-7.8,2.79,2.79,0,0,0-2.7-2.44h-0.24a0.4,0.4,0,0,1-.4-0.4v-1a0.4,0.4,0,0,1,.4-0.4H378a4.53,4.53,0,0,1,4.5,4.2,50.75,50.75,0,0,1,0,7.8A4.44,4.44,0,0,1,378,812h-0.36a0.4,0.4,0,0,1-.4-0.4v-1a0.4,0.4,0,0,1,.4-0.4H378Z"/>
    </g>
    <line class="cls-9" x1="269.42" y1="559.32" x2="267.19" y2="963.32"/>
    <circle class="cls-10" cx="268.1" cy="549.13" r="10.39"/>
    <circle class="cls-8" cx="342.94" cy="747.97" r="10.39"/>
    <circle class="cls-10" cx="268.1" cy="703.76" r="10.39"/>
    <g>
      <path class="cls-8" d="M343.71,590.56a40.09,40.09,0,0,1,40.09-40.09"/>
      <path class="cls-8" d="M423.25,510.39a40.09,40.09,0,0,1-40.09,40.09"/>
    </g>
    <g>
      <path class="cls-8" d="M343.71,738.08A40.09,40.09,0,0,1,383.8,698"/>
      <path class="cls-8" d="M423.25,657.9A40.09,40.09,0,0,1,383.15,698"/>
    </g>
    <circle class="cls-5" cx="423.08" cy="498.92" r="10.39"/>
    <line class="cls-8" x1="423.25" y1="513.93" x2="423.25" y2="660.58"/>
    <circle class="cls-10" cx="268.1" cy="969.22" r="10.39"/>
    <circle class="cls-14" cx="342.94" cy="594.34" r="10.39"/>
  </g>
</svg>
